<svg width="64" height="64" viewBox="0 0 64 64" fill="none" xmlns="http://www.w3.org/2000/svg">
  <defs>
    <linearGradient id="g" x1="0" y1="0" x2="64" y2="64" gradientUnits="userSpaceOnUse">
      <stop stop-color="#5b6ef5"/>
      <stop offset="1" stop-color="#2f8be8"/>
    </linearGradient>
  </defs>
  <rect width="64" height="64" rx="15" fill="url(#g)"/>
  <path d="M25 17c-4 0-6 2-6 6v3c0 3-1 4-4 4v4c3 0 4 1 4 4v3c0 4 2 6 6 6"
        stroke="#fff" stroke-width="3.4" stroke-linecap="round" stroke-linejoin="round" fill="none"/>
  <path d="M39 17c4 0 6 2 6 6v3c0 3 1 4 4 4v4c-3 0-4 1-4 4v3c0 4-2 6-6 6"
        stroke="#fff" stroke-width="3.4" stroke-linecap="round" stroke-linejoin="round" fill="none"/>
</svg>
