<svg width="64" height="64" viewBox="0 0 64 64" fill="none" xmlns="http://www.w3.org/2000/svg">
  <rect x="2" y="2" width="60" height="60" rx="16" fill="#156cdd"/>
  <g fill="none" stroke="#ffffff" stroke-width="3.6" stroke-linecap="round" stroke-linejoin="round">
    <path d="M24 18c-4 0-5.6 1.8-5.6 5.6v3.4c0 2.9-1.3 4.4-3.4 4.4 2.1 0 3.4 1.5 3.4 4.4v3.4c0 3.8 1.6 5.6 5.6 5.6"/>
    <path d="M40 18c4 0 5.6 1.8 5.6 5.6v3.4c0 2.9 1.3 4.4 3.4 4.4-2.1 0-3.4 1.5-3.4 4.4v3.4c0 3.8-1.6 5.6-5.6 5.6"/>
  </g>
  <circle cx="26.5" cy="32" r="2.6" fill="#7cf3c2"/>
  <circle cx="32" cy="32" r="2.6" fill="#ffd36b"/>
  <circle cx="37.5" cy="32" r="2.6" fill="#ff9db1"/>
</svg>
